<?xml version="1.0" encoding="utf-8"?>
<!-- Generator: Adobe Illustrator 16.0.0, SVG Export Plug-In . SVG Version: 6.00 Build 0)  -->
<!DOCTYPE svg PUBLIC "-//W3C//DTD SVG 1.1//EN" "http://www.w3.org/Graphics/SVG/1.1/DTD/svg11.dtd">
<svg xmlns="http://www.w3.org/2000/svg" xmlns:xlink="http://www.w3.org/1999/xlink" version="1.1" id="Capa_1" x="0px" y="0px" width="512px" height="512px" viewBox="0 0 512 512" enable-background="new 0 0 512 512" xml:space="preserve">
<path d="M207.093,147.207c-33.188,0-96.518,81.681-96.518,81.681s-36.248,6.082-59.967,20.303  c-23.727,14.243-14.232,71.175-14.232,71.175h35.47c0,0.151-0.023,0.293-0.023,0.444c0,24.289,19.637,43.993,43.964,43.993  c24.275,0,43.944-19.715,43.944-43.993c0-0.151-0.021-0.293-0.021-0.444h173.855c0,0.151-0.021,0.293-0.021,0.444  c0,24.289,19.64,43.993,43.97,43.993c24.255,0,43.938-19.715,43.938-43.993c0-0.151-0.021-0.293-0.021-0.444H477.5v-104.39v-68.778  C458.487,147.207,240.3,147.207,207.093,147.207z M52.82,278.129c-2.121,0-4.199-0.436-6.231-1.103  c2.328-11.221,6.641-18.846,12.893-22.615c3.07-1.836,6.603-3.613,10.528-5.394c1.836,2.984,2.849,6.305,2.849,9.732  C72.858,269.441,63.869,278.129,52.82,278.129z M115.786,340.1c-10.659,0-19.279-8.665-19.279-19.279  c0-10.605,8.675-19.24,19.279-19.24c10.618,0,19.242,8.666,19.242,19.24C135.039,331.435,126.404,340.1,115.786,340.1z   M263.423,214.729H154.786c0,0,38.677-49.104,57.079-49.104c18.424,0,51.558,0,51.558,0V214.729L263.423,214.729z M377.509,340.1  c-10.654,0-19.279-8.654-19.279-19.279c0-10.596,8.665-19.24,19.279-19.24c10.609,0,19.234,8.666,19.234,19.24  C396.759,331.443,388.104,340.1,377.509,340.1z M460.588,294.529h-16.486v-78.55h16.486V294.529z" fill="#FFFFFF"/>
</svg>
